<svg width="24" height="24" viewBox="0 0 24 24" fill="none" xmlns="http://www.w3.org/2000/svg">
<path d="M12 4.4C7.80935 4.4 4.4 7.80935 4.4 12C4.4 16.1907 7.80935 19.6 12 19.6C16.1907 19.6 19.6 16.1907 19.6 12C19.6 7.80935 16.1907 4.4 12 4.4ZM12 18C10.8133 18 9.65327 17.6481 8.66658 16.9888C7.67988 16.3295 6.91085 15.3925 6.45672 14.2961C6.0026 13.1997 5.88378 11.9933 6.11529 10.8295C6.3468 9.66557 6.91824 8.59647 7.75736 7.75736C8.59647 6.91824 9.66557 6.3468 10.8295 6.11529C11.9933 5.88378 13.1997 6.0026 14.2961 6.45672C15.3925 6.91085 16.3295 7.67988 16.9888 8.66658C17.6481 9.65327 18 10.8133 18 12C17.9982 13.5907 17.3655 15.1158 16.2407 16.2407C15.1158 17.3655 13.5907 17.9982 12 18ZM11.2 0H12.8V2.4H11.2V0ZM11.2 21.6H12.8V24H11.2V21.6ZM21.6 11.2H24V12.8H21.6V11.2ZM0 11.2H2.4V12.8H0V11.2ZM18.6344 19.7657L19.7657 18.6344L21.3657 20.2344L20.2344 21.3657L18.6344 19.7657ZM2.63435 3.7657L3.76575 2.6343L5.36575 4.2343L4.23435 5.3657L2.63435 3.7657ZM2.63425 20.2344L4.23425 18.6345L5.36565 19.7658L3.76565 21.3658L2.63425 20.2344ZM18.6344 4.2343L20.2344 2.6343L21.3658 3.7657L19.7658 5.3657L18.6344 4.2343Z" fill="#F1F2F3"/>
</svg>
