<svg width="25" height="25" viewBox="0 0 25 25" fill="none" xmlns="http://www.w3.org/2000/svg">
<path d="M24.368 14.6676C24.2477 14.5471 24.0969 14.4616 23.9317 14.4203C23.7666 14.379 23.5933 14.3835 23.4305 14.4332C21.6429 14.9736 19.7421 15.0189 17.9308 14.5643C16.1194 14.1097 14.4654 13.1722 13.1449 11.8516C11.8243 10.5311 10.8868 8.87704 10.4322 7.0657C9.97754 5.25437 10.0229 3.35363 10.5633 1.56602C10.6134 1.40313 10.6182 1.22965 10.5772 1.06424C10.5361 0.898823 10.4507 0.747734 10.3302 0.627218C10.2097 0.506702 10.0586 0.421319 9.89318 0.380252C9.72777 0.339185 9.55429 0.343988 9.3914 0.394144C6.91995 1.15123 4.75023 2.66851 3.19101 4.73008C1.82743 6.54046 0.995681 8.69521 0.789209 10.9522C0.582737 13.2093 1.00972 15.4792 2.02219 17.5069C3.03466 19.5346 4.5925 21.2399 6.5207 22.4311C8.44889 23.6222 10.671 24.2521 12.9375 24.25C15.5816 24.2581 18.1554 23.3985 20.2641 21.8031C22.3256 20.2439 23.8429 18.0742 24.6 15.6027C24.6496 15.4405 24.6542 15.2678 24.6133 15.1031C24.5724 14.9384 24.4876 14.7879 24.368 14.6676ZM19.1367 20.3055C17.151 21.8011 14.6919 22.5291 12.212 22.3554C9.73219 22.1818 7.39851 21.1182 5.64062 19.3605C3.88274 17.6027 2.81896 15.2691 2.64511 12.7893C2.47127 10.3094 3.19907 7.85027 4.69452 5.86446C5.66883 4.57781 6.92843 3.53483 8.37421 2.81758C8.29185 3.39558 8.25034 3.97867 8.24999 4.5625C8.25341 7.79378 9.53854 10.8917 11.8234 13.1766C14.1083 15.4615 17.2062 16.7466 20.4375 16.75C21.0225 16.7498 21.6068 16.7083 22.1859 16.6258C21.468 18.0718 20.4242 19.3314 19.1367 20.3055Z" fill="#030A1D"/>
</svg>
