<?xml version="1.0" encoding="UTF-8"?>
<svg id="Layer_1" data-name="Layer 1" xmlns="http://www.w3.org/2000/svg" viewBox="0 0 360 360">
  <defs>
    <style>
      .cls-1 {
        fill: #231f20;
        stroke-width: 0px;
      }
    </style>
  </defs>
  <path class="cls-1"
    d="M141.06,75.48c14.05,0,25.43-11.38,25.43-25.43s-11.38-25.44-25.43-25.44-25.44,11.4-25.44,25.44,11.4,25.43,25.44,25.43Z" />
  <path class="cls-1"
    d="M73.94,284.02c-14.2,0-25.69,11.49-25.69,25.69s11.49,25.68,25.69,25.68,25.68-11.49,25.68-25.68-11.49-25.69-25.68-25.69Z" />
  <polygon class="cls-1" points="205.75 129.42 205.75 178.27 264.33 129.42 205.75 129.42" />
  <polygon class="cls-1" points="166.49 226.31 208.68 293.81 268.43 293.81 205.75 193.56 166.49 226.31" />
  <path class="cls-1"
    d="M166.49,87.57l-50.65,39.88v205.6c4.14,1.52,8.55,2.34,13.03,2.34,20.78,0,37.62-16.84,37.62-37.62V87.57Z" />
  <path class="cls-1"
    d="M286.32,178.27c-14.05,0-25.44,11.4-25.44,25.44s11.4,25.43,25.44,25.43,25.43-11.38,25.43-25.43-11.38-25.44-25.43-25.44Z" />
</svg>