<?xml version="1.0" encoding="UTF-8"?>
<svg id="Layer_1" data-name="Layer 1" xmlns="http://www.w3.org/2000/svg" version="1.1" viewBox="0 0 65 65">
  <path fill="white"
    d="M58.5,27c1.5-4.3.9-8.8-1.2-12.5-3.4-5.8-10.1-8.8-16.4-7.3-3.7-4-9.1-5.8-14.6-4.9-5.5,1.2-9.7,5.2-11.6,10.4-4.3.9-7.9,3.7-10.1,7.3-3.4,5.8-2.7,13.1,1.8,18-1.5,4.3-.9,8.8,1.2,12.5,3.4,5.8,10.1,8.8,16.4,7.3,3,3.4,7,5.2,11.6,5.2,6.7,0,12.5-4.3,14.6-10.7,4.3-.9,7.9-3.7,10.1-7.3,3.4-5.8,2.7-13.1-1.8-18ZM35.7,59c-2.7,0-5.2-.9-7.3-2.7l.3-.3,12.2-7c.6-.3.9-.9.9-1.8v-17.1l5.2,3h0v14.3c0,6.4-4.9,11.6-11.3,11.6h0ZM11,48.3c-1.2-2.4-1.8-4.9-1.2-7.6l.3.3,12.2,7c.6.3,1.2.3,2.1,0l14.9-8.5v6.1l-12.2,7c-5.8,3-12.8,1.2-16.1-4.3ZM8,22.1c1.2-2.4,3.4-4,6.1-4.9v14.3c0,.6.3,1.2.9,1.8l14.6,8.5-5.2,3h-.3l-12.2-7c-5.2-3.7-7-10.7-4-15.8h0ZM50,31.9l-14.6-8.5,5.2-3h.3l12.2,7c4,2.1,6.1,6.4,5.8,11-.3,4.3-3.4,8.2-7.3,9.7v-14.3c-.3-.9-.9-1.5-1.5-1.8h0ZM55.2,24.2l-.3-.3-12.2-7c-.6-.3-1.5-.3-2.1,0l-14.6,8.5v-6.1l12.2-7c4-2.1,8.5-2.1,12.2.6,3.7,2.4,5.5,6.7,4.9,11.3h0ZM23.2,34.6l-5.2-3h0v-14.3c0-4.6,2.4-8.5,6.7-10.4,4-1.8,8.8-1.2,12.2,1.5l-.3.3-12.2,7c-.6.3-.9.9-.9,1.8l-.3,17.1ZM26,28.5l6.7-3.7,6.7,3.7v7.6l-6.7,3.7-6.7-3.7v-7.6h0Z" />
</svg>