<?xml version="1.0" encoding="UTF-8"?>
<svg id="Layer_1" data-name="Layer 1" xmlns="http://www.w3.org/2000/svg" version="1.1" viewBox="0 0 360 360">
  <defs>
    <style>
      .cls-1 {
        fill: #fff;
        stroke-width: 0px;
      }
    </style>
  </defs>
  <path class="cls-1" d="M141.1,75.5c14,0,25.4-11.4,25.4-25.4s-11.4-25.4-25.4-25.4-25.4,11.4-25.4,25.4,11.4,25.4,25.4,25.4Z"/>
  <path class="cls-1" d="M73.9,284c-14.2,0-25.7,11.5-25.7,25.7s11.5,25.7,25.7,25.7,25.7-11.5,25.7-25.7-11.5-25.7-25.7-25.7Z"/>
  <polygon class="cls-1" points="205.8 129.4 205.8 178.3 264.3 129.4 205.8 129.4"/>
  <polygon class="cls-1" points="166.5 226.3 208.7 293.8 268.4 293.8 205.8 193.6 166.5 226.3"/>
  <path class="cls-1" d="M166.5,87.6l-50.7,39.9v205.6c4.1,1.5,8.6,2.3,13,2.3,20.8,0,37.6-16.8,37.6-37.6V87.6Z"/>
  <path class="cls-1" d="M286.3,178.3c-14,0-25.4,11.4-25.4,25.4s11.4,25.4,25.4,25.4,25.4-11.4,25.4-25.4-11.4-25.4-25.4-25.4Z"/>
</svg>