<?xml version="1.0" encoding="UTF-8"?>
<svg id="Layer_1" data-name="Layer 1" xmlns="http://www.w3.org/2000/svg" version="1.1" viewBox="0 0 130 130">
  <defs>
    <style>
      .cls-1 {
        fill: #2767b2;
        stroke-width: 0px;
      }
    </style>
  </defs>
  <path class="cls-1" d="M65,1.1c18.2,0,36.3,0,54.5,0,4.8,0,8.8,3.4,9.4,7.7,0,.5.1.9.1,1.4,0,36.6,0,73.1,0,109.7,0,4.9-3.9,8.9-8.7,9.1-.3,0-.6,0-1,0-36.3,0-72.5,0-108.8,0-4.6,0-8-2.4-9.2-6.6-.3-.9-.4-1.8-.4-2.7,0-36.5,0-72.9,0-109.4,0-5.2,3.9-9.2,9.1-9.3,4.4,0,8.8,0,13.2,0,13.9,0,27.8,0,41.7,0ZM69.3,56.9c0-2.2,0-4.4,0-6.6,0-1.1-.3-1.4-1.4-1.4-5.2,0-10.4,0-15.6,0-1.6,0-1.6,0-1.6,1.6,0,19.4,0,38.9,0,58.3,0,1.2.4,1.6,1.6,1.6,5.4,0,10.8,0,16.2,0,1.6,0,1.6,0,1.6-1.6,0-9.8,0-19.6,0-29.3,0-2,.1-4.1.5-6.1.7-4.1,2.6-7.5,7.1-8.6,1.3-.3,2.8-.4,4.1-.4,4.6,0,7.4,2.2,8.4,6.6.6,2.5.8,5,.8,7.6,0,10.1,0,20.1,0,30.2,0,1.2.4,1.6,1.6,1.6,5.4,0,10.8,0,16.2,0,1.2,0,1.6-.3,1.6-1.5,0-11.7,0-23.3,0-35,0-3.9-.6-7.8-1.5-11.6-1.6-6.8-5.5-11.8-12.5-13.7-2.4-.7-4.9-.8-7.4-1.1-4.2-.5-8.2.4-11.9,2.4-3.2,1.7-5.7,4.1-7.7,7.1ZM19.7,79.6c0,9.8,0,19.6,0,29.3,0,1,.2,1.4,1.3,1.4,5.6,0,11.2,0,16.8,0,1,0,1.3-.4,1.3-1.3,0-19.6,0-39.2,0-58.8,0-1.1-.4-1.3-1.4-1.3-5.5,0-11,0-16.5,0-1.2,0-1.5.4-1.4,1.5,0,9.7,0,19.5,0,29.2ZM29.4,40.7c6.2,0,11.1-4.9,11.1-11,0-6.2-4.9-11.2-11.1-11.2-6.2,0-11.1,4.9-11.1,11.2,0,6.2,4.9,11.1,11.1,11.1Z"/>
</svg>